# xmcd
#
# Track frame offsets: 
#        150
#        24504
#        40187
#        55980
#        97377
#        112856
#        127860
#        143543
#        158414
#
# Disc length: 2729 seconds
#
# Revision: 0
# Processed by: cddbd v1.5.2PL0 Copyright (c) Steve Scherf et al.
# Submitted via: ExactAudioCopyFreeDBPlugin 1.0
#
DISCID=690aa709
DTITLE=Lorelle Meets The Obsolete - De Facto
DYEAR=2019
DGENRE=Psych
TTITLE0=Ana
TTITLE1=Líneas En Hojas
TTITLE2=Acción - Vaciar
TTITLE3=Unificado
TTITLE4=Inundación
TTITLE5=Lux, Lumina
TTITLE6=Resistir
TTITLE7=El Derrumbe
TTITLE8=La Maga
EXTD=
EXTT0=
EXTT1=
EXTT2=
EXTT3=
EXTT4=
EXTT5=
EXTT6=
EXTT7=
EXTT8=
PLAYORDER=
